# xmcd
#
# Track frame offsets:
#	150
#	57230
#	97191
#	128439
#	154035
#
# Disc length: 2386 seconds
#
# Revision: 0
# Processed by: cddbd v1.5.2PL0 Copyright (c) Steve Scherf et al.
# Submitted via: audiograbber 1.83.01
#
DISCID=38095005
DTITLE=Grateful Dead - 93-06-05 Giants Stadium, East Rutherford NJ
DYEAR=1900
DGENRE=
TTITLE0=Jam
TTITLE1=The Other One
TTITLE2=Stella Blue
TTITLE3=One More Saturday Night
TTITLE4=Box Of Rain
EXTD=
EXTT0=
EXTT1=
EXTT2=
EXTT3=
EXTT4=
PLAYORDER=
